<svg width="34" height="37" viewBox="0 0 34 37" fill="none" xmlns="http://www.w3.org/2000/svg">
    <path d="M25.6324 2.2393L24.7791 1.38672V2.59302V8.50008V9.00008H25.2791H31.1917H32.3996L31.5451 8.14636L25.6324 2.2393Z" fill="#928882" stroke="black"/>
    <path d="M15.6978 27.6628H16.4419H16.6978H17.5815V30.6861H14.5582V27.6628H15.4419H15.6978ZM16.4419 19.3837H15.6978H15.4419H10.1629V15.1046H21.9768V19.3837H16.6978H16.4419ZM7.53499 27.6628H8.27914H8.53499H9.41875V30.6861H6.39544V27.6628H7.27914H7.53499ZM23.6047 27.6628H23.8606H24.6047H24.8606H25.7443V30.6861H22.721V27.6628H23.6047ZM29.2559 11.219H22.721V4.68604V3.68604H21.721H2.88379H1.88379V4.68604V34.8256V35.8256H2.88379H29.2559H30.2559V34.8256V12.219V11.219H29.2559Z" fill="#928882" stroke="black" stroke-width="2"/>
</svg>
