<svg width="34" height="35" viewBox="0 0 34 35" fill="none" xmlns="http://www.w3.org/2000/svg">
    <g clip-path="url(#clip0_826_5556)">
        <path d="M23.8397 9.21057V35H3.65939C1.64135 35 -0.00976562 33.3422 -0.00976562 31.3158V9.21057H23.8397Z" fill="#928882"/>
        <path d="M7.32858 0V31.3158C7.32858 33.3421 5.67746 35 3.65942 35H30.2608C32.2788 35 33.9299 33.3421 33.9299 31.3158V0H7.32858Z" fill="#FFFCFA"/>
        <path d="M12.8323 4.60535H29.3435V8.28956H12.8323V4.60535ZM12.8323 11.0527H20.1706V12.8948H12.8323V11.0527ZM22.0052 11.0527H29.3435V12.8948H22.0052V11.0527ZM12.8323 14.7369H20.1706V16.579H12.8323V14.7369ZM22.0052 14.7369H29.3435V16.579H22.0052V14.7369ZM12.8323 18.4211H20.1706V20.2632H12.8323V18.4211ZM22.0052 18.4211H29.3435V20.2632H22.0052V18.4211ZM12.8323 22.1054H20.1706V23.9475H12.8323V22.1054ZM22.0052 22.1054H29.3435V23.9475H22.0052V22.1054ZM12.8323 25.7896H20.1706V27.6317H12.8323V25.7896ZM22.0052 25.7896H29.3435V27.6317H22.0052V25.7896ZM12.8323 29.4738H20.1706V31.3159H12.8323V29.4738ZM22.0052 29.4738H29.3435V31.3159H22.0052V29.4738Z" fill="#051B35"/>
    </g>
    <defs>
        <clipPath id="clip0_826_5556">
            <rect width="34" height="35" fill="white"/>
        </clipPath>
    </defs>
</svg>
