<svg width="37" height="37" viewBox="0 0 37 37" fill="none" xmlns="http://www.w3.org/2000/svg">
    <path d="M0.823242 11.2507H35.9892V36.3148H0.823242V11.2507Z" fill="#FEDFB5"/>
    <path d="M35.9888 36.3149H0.185059V12.1945H35.9888V36.3149ZM1.21219 35.2878H34.9617V13.2216H1.21219V35.2878Z" fill="#6A362C"/>
    <path d="M36.174 36.5H0V12.0093H36.174V36.5H36.174ZM0.370215 36.1298H35.8038V12.3795H0.370215V36.1298ZM35.1469 35.4728H1.02719V13.0364H35.1469L35.1469 35.4728ZM1.3974 35.1026H34.7767V13.4066H1.3974V35.1026Z" fill="#6A362C"/>
    <path d="M0.69873 5.40613H35.4754V12.7079H0.69873V5.40613Z" fill="#6A362C"/>
    <path d="M35.6605 12.8931H0.513672V5.22107H35.6606V12.8931H35.6605ZM0.883887 12.5229H35.2904V5.59128H0.883887V12.5229Z" fill="#6A362C"/>
    <path d="M35.9888 13.2214H0.185059V4.89258H35.9888V13.2214ZM1.21219 12.1943H34.9617V5.91976H1.21219V12.1943Z" fill="#6A362C"/>
    <path d="M36.174 13.4065H0V4.70752H36.174V13.4065H36.174ZM0.370215 13.0363H35.8038V5.07773H0.370215V13.0363ZM35.1469 12.3794H1.02719V5.73465H35.1469L35.1469 12.3794ZM1.3974 12.0092H34.7767V6.10487H1.3974V12.0092Z" fill="#6A362C"/>
    <path d="M26.7461 1.01355H30.1006V9.62739H26.7461V1.01355Z" fill="#F79E2D"/>
    <path d="M30.614 10.141H26.2324V0.5H30.614V10.141ZM27.2596 9.11389H29.5869V1.52713H27.2596V9.11389Z" fill="#6A362C"/>
    <path d="M6.07373 1.01355H9.42819V9.62739H6.07373V1.01355Z" fill="#F79E2D"/>
    <path d="M9.94165 10.141H5.56006V0.5H9.94165V10.141ZM6.58719 9.11389H8.91452V1.52713H6.58719V9.11389Z" fill="#6A362C"/>
    <path d="M27.5845 15.7272H31.1066V19.2493H27.5845V15.7272Z" fill="#E63232"/>
    <path d="M27.5842 22.4937H31.1064V26.0159H27.5842V22.4937ZM27.5842 29.2603H31.1064V32.7825H27.5842V29.2603ZM20.0786 15.7272H23.6008V19.2493H20.0786V15.7272Z" fill="#0C3057"/>
    <path d="M20.0786 22.4935H23.6008V26.0157H20.0786V22.4935Z" fill="#E63232"/>
    <path d="M20.0789 29.2603H23.6011V32.7825H20.0789V29.2603ZM12.5732 15.7272H16.0955V19.2493H12.5732V15.7272Z" fill="#0C3057"/>
    <path d="M12.5732 22.4935H16.0955V26.0157H12.5732V22.4935Z" fill="#E63232"/>
    <path d="M12.573 29.26H16.0952V32.7823H12.573V29.26ZM5.06738 22.4935H8.5896V26.0157H5.06738V22.4935Z" fill="#326FE6"/>
    <path d="M5.06738 29.2603H8.58961V32.7825H5.06738V29.2603Z" fill="#E63232"/>
</svg>
