<svg width="50" height="45" viewBox="0 0 50 45" fill="none" xmlns="http://www.w3.org/2000/svg">
    <rect x="1" y="5" width="48" height="35" stroke="black"/>
    <path d="M49 5.20264H1V39.4276H49V5.20264Z" fill="#6A362C"/>
    <path d="M25 5.20264H1V39.4276H25V5.20264Z" fill="#F79E2D"/>
    <path d="M46.8628 7.33936H3.13672V37.2904H46.8628V7.33936Z" fill="#FEDFB5"/>
    <path d="M25 6.75H3.25V37.5H25V6.75Z" fill="#FFF1D8"/>
    <path d="M16.3433 12.8326H6.70898V15.7714H16.3433V12.8326Z" fill="#0C3057"/>
    <path d="M21.4274 18.1743H6.70898V21.1131H21.4274V18.1743Z" fill="#0C3057"/>
    <path d="M21.4274 23.5171H6.70898V26.4559H21.4274V23.5171Z" fill="#0C3057"/>
    <path d="M21.4274 28.8588H6.70898V31.7975H21.4274V28.8588Z" fill="#0C3057"/>
    <path d="M43.2909 12.8326H28.5725V15.7714H43.2909V12.8326Z" fill="#0C3057"/>
    <path d="M43.2909 18.1743H28.5725V21.1131H43.2909V18.1743Z" fill="#0C3057"/>
    <path d="M43.2909 23.5171H28.5725V26.4559H43.2909V23.5171Z" fill="#0C3057"/>
    <path d="M43.2909 28.8588H28.5725V31.7975H43.2909V28.8588Z" fill="#0C3057"/>
    <path d="M38.2616 42.7976L35.9315 41.3281L33.6013 42.7976V5.20251H38.2616V42.7976Z" fill="#F79E2D"/>
</svg>
