<svg width="32" height="37" viewBox="0 0 32 37" fill="none" xmlns="http://www.w3.org/2000/svg">
    <path d="M3.61106 3.50013V1L30.5144 1.00009V36.0001H3.61106V35.0001V34.5001H3.11106C2.40021 34.5001 1.77507 34.2788 1.33819 33.9442C0.901793 33.6099 0.673828 33.1833 0.673828 32.7501C0.673828 32.3475 0.869941 31.9525 1.2469 31.6299L1.69084 31.25L1.24685 30.8701C0.869946 30.5477 0.673828 30.1527 0.673828 29.7501C0.673828 29.3475 0.869945 28.9525 1.24685 28.63L1.69084 28.2502L1.24689 27.8702C0.869941 27.5476 0.673828 27.1527 0.673828 26.7501C0.673828 26.3475 0.869931 25.9526 1.24689 25.63L1.69078 25.2501L1.2469 24.8702C0.869931 24.5476 0.673828 24.1527 0.673828 23.7501C0.673828 23.3475 0.869941 22.9525 1.2469 22.6299L1.69078 22.2501L1.2469 21.8702C0.869919 21.5476 0.673828 21.1527 0.673828 20.7501C0.673828 20.3475 0.869946 19.9525 1.24685 19.63L1.69084 19.2502L1.24689 18.8702C0.869941 18.5476 0.673828 18.1527 0.673828 17.7501C0.673828 17.3475 0.86992 16.9526 1.2469 16.63L1.69078 16.2501L1.2469 15.8702C0.869931 15.5476 0.673828 15.1527 0.673828 14.7501C0.673828 14.3475 0.869941 13.9525 1.2469 13.6299L1.69078 13.2501L1.2469 12.8702C0.869919 12.5476 0.673828 12.1527 0.673828 11.7501C0.673828 11.3475 0.869945 10.9525 1.24685 10.63L1.69084 10.2502L1.2469 9.87025C0.869942 9.54765 0.673828 9.1527 0.673828 8.75006C0.673828 8.34753 0.86993 7.95258 1.2469 7.62997L1.69078 7.25009L1.2469 6.87021C0.86993 6.54761 0.673828 6.15266 0.673828 5.75013C0.673828 5.31694 0.901799 4.89033 1.33818 4.55605C1.77505 4.2214 2.4002 4.00013 3.11106 4.00013H3.61106V3.50013ZM8.98542 6.00006L8.48542 6.00006V6.50006V9.50009V10.0001H8.98542H25.14H25.64V9.50009V6.50016V6.00016L25.14 6.00016L8.98542 6.00006ZM11.9227 12.0001H11.4227V12.5001V14.0001V14.5001H11.9227H22.2028H22.7028V14.0001V12.5001V12.0001H22.2028H11.9227ZM3.11106 4.50009C2.6432 4.50009 2.19488 4.59588 1.84514 4.7745C1.52238 4.93934 1.1424 5.25717 1.1424 5.75013C1.1424 6.24308 1.52238 6.56092 1.84514 6.72575C2.19488 6.90437 2.6432 7.00016 3.11106 7.00016C3.57887 7.00016 4.02717 6.90437 4.3769 6.72575C4.69965 6.56091 5.07963 6.24308 5.07963 5.75013C5.07963 5.25717 4.69965 4.93934 4.3769 4.7745C4.02717 4.59588 3.57887 4.50009 3.11106 4.50009ZM3.11106 7.50013C2.6432 7.50013 2.19488 7.59591 1.84514 7.77453C1.52238 7.93937 1.1424 8.2572 1.1424 8.75016C1.1424 9.24314 1.52241 9.56095 1.84517 9.72575C2.19492 9.90434 2.64323 10.0001 3.11106 10.0001C3.57885 10.0001 4.02714 9.90434 4.37687 9.72575C4.69961 9.56094 5.07963 9.24314 5.07963 8.75016C5.07963 8.2572 4.69965 7.93937 4.3769 7.77454C4.02717 7.59591 3.57887 7.50013 3.11106 7.50013ZM3.11106 10.5002C2.64323 10.5002 2.19492 10.5959 1.84517 10.7745C1.52241 10.9393 1.1424 11.2571 1.1424 11.7501C1.1424 12.2431 1.52236 12.5609 1.84515 12.7258C2.19491 12.9044 2.64323 13.0001 3.11106 13.0001C3.57885 13.0001 4.02715 12.9044 4.37689 12.7258C4.69967 12.5609 5.07963 12.2431 5.07963 11.7501C5.07963 11.2571 4.69961 10.9393 4.37687 10.7745C4.02714 10.5959 3.57885 10.5002 3.11106 10.5002ZM3.11106 13.5001C2.64321 13.5001 2.19488 13.5959 1.84514 13.7745C1.52238 13.9393 1.1424 14.2572 1.1424 14.7501C1.1424 15.2431 1.52238 15.5609 1.84514 15.7258C2.19488 15.9044 2.6432 16.0002 3.11106 16.0002C3.57887 16.0002 4.02717 15.9044 4.3769 15.7257C4.69965 15.5609 5.07963 15.2431 5.07963 14.7501C5.07963 14.2572 4.69964 13.9393 4.3769 13.7745C4.02717 13.5959 3.57887 13.5001 3.11106 13.5001ZM3.11106 16.5001C2.64323 16.5001 2.19491 16.5959 1.84515 16.7745C1.52236 16.9393 1.1424 17.2572 1.1424 17.7502C1.1424 18.2431 1.52241 18.5609 1.84517 18.7258C2.19492 18.9043 2.64323 19.0001 3.11106 19.0001C3.57885 19.0001 4.02714 18.9043 4.37687 18.7257C4.69961 18.5609 5.07963 18.2431 5.07963 17.7502C5.07963 17.2572 4.69967 16.9393 4.37689 16.7745C4.02715 16.5959 3.57885 16.5001 3.11106 16.5001ZM3.11106 19.5002C2.64323 19.5002 2.19493 19.5959 1.8452 19.7745C1.52244 19.9393 1.14249 20.2571 1.14249 20.7501C1.14249 21.2431 1.52238 21.5609 1.84519 21.7258C2.19492 21.9044 2.64323 22.0001 3.11106 22.0001C3.57885 22.0001 4.02715 21.9044 4.37689 21.7258C4.69967 21.5609 5.07963 21.2431 5.07963 20.7501C5.07963 20.2571 4.69961 19.9393 4.37687 19.7745C4.02714 19.5959 3.57885 19.5002 3.11106 19.5002ZM3.11106 22.5001C2.6432 22.5001 2.1949 22.5959 1.84517 22.7745C1.52241 22.9394 1.14249 23.2572 1.14249 23.7501C1.14249 24.2431 1.52241 24.5609 1.84517 24.7257C2.1949 24.9044 2.6432 25.0002 3.11106 25.0002C3.57887 25.0002 4.02717 24.9044 4.3769 24.7257C4.69965 24.5609 5.07963 24.2431 5.07963 23.7501C5.07963 23.2572 4.69964 22.9393 4.3769 22.7745C4.02717 22.5959 3.57887 22.5001 3.11106 22.5001ZM3.11106 25.5001C2.64323 25.5001 2.19493 25.5959 1.8452 25.7745C1.52244 25.9393 1.14249 26.2571 1.14249 26.7501C1.14249 27.243 1.52238 27.5609 1.84518 27.7257C2.19492 27.9043 2.64323 28.0001 3.11106 28.0001C3.57885 28.0001 4.02715 27.9043 4.37689 27.7257C4.69967 27.5609 5.07963 27.243 5.07963 26.7501C5.07963 26.2571 4.69962 25.9393 4.37687 25.7745C4.02714 25.5959 3.57885 25.5001 3.11106 25.5001ZM3.11106 28.5001C2.64321 28.5001 2.1949 28.5958 1.84517 28.7745C1.52241 28.9393 1.14249 29.2572 1.14249 29.7501C1.14249 30.243 1.52241 30.5609 1.84517 30.7257C2.1949 30.9043 2.6432 31.0001 3.11106 31.0001C3.57887 31.0001 4.02717 30.9043 4.3769 30.7257C4.69964 30.5609 5.07963 30.243 5.07963 29.7501C5.07963 29.2571 4.69965 28.9393 4.3769 28.7745C4.02717 28.5959 3.57887 28.5001 3.11106 28.5001ZM3.11106 31.5001C2.64321 31.5001 2.1949 31.5959 1.84517 31.7745C1.52241 31.9394 1.14249 32.2572 1.14249 32.7501C1.14249 33.2431 1.52244 33.5609 1.8452 33.7257C2.19493 33.9043 2.64323 34.0001 3.11106 34.0001C3.57885 34.0001 4.02714 33.9043 4.37687 33.7257C4.69962 33.5609 5.07963 33.2431 5.07963 32.7501C5.07963 32.2572 4.69965 31.9393 4.3769 31.7745C4.02717 31.5959 3.57887 31.5001 3.11106 31.5001Z" fill="#928882" stroke="black"/>
</svg>
