<svg width="37" height="37" viewBox="0 0 37 37" fill="none" xmlns="http://www.w3.org/2000/svg">
    <g clip-path="url(#clip0_826_9871)">
        <mask id="path-1-outside-1_826_9871" maskUnits="userSpaceOnUse" x="-1.41992" y="0.0651855" width="38" height="37" fill="black">
            <rect fill="white" x="-1.41992" y="0.0651855" width="38" height="37"/>
            <path d="M33.038 22.1822L30.9957 20.5223C31.0985 19.8547 31.1506 19.1762 31.1506 18.5C31.1506 17.8237 31.0985 17.1451 30.9957 16.4775L33.038 14.8175C33.6906 14.2871 33.8573 13.3782 33.4348 12.6566L30.6571 7.9091C30.3511 7.38441 29.7803 7.05847 29.1672 7.05847C28.9597 7.05847 28.7557 7.09526 28.5621 7.16729L26.0829 8.08365C25.0065 7.23071 23.8159 6.5513 22.5342 6.05884L22.0995 3.48564C21.9611 2.66262 21.2471 2.06519 20.4016 2.06519H14.8455C14 2.06519 13.286 2.66268 13.1478 3.48519L12.713 6.05877C11.4313 6.55137 10.2405 7.23071 9.16412 8.08372L6.68784 7.16844C6.49274 7.09538 6.2884 7.05834 6.08036 7.05834C5.46794 7.05834 4.89696 7.38408 4.59043 7.90839L1.81249 12.6565C1.3897 13.3784 1.5565 14.2873 2.20912 14.8177L4.25143 16.4775C4.14865 17.1452 4.0966 17.8237 4.0966 18.5C4.0966 19.1762 4.14865 19.8547 4.25143 20.5224L2.20912 22.1823C1.5565 22.7127 1.38977 23.6217 1.81236 24.3432L4.59036 29.0915C4.89716 29.6161 5.46807 29.942 6.08036 29.942C6.28886 29.942 6.49358 29.9047 6.68497 29.8326L9.16399 28.9162C10.2404 29.7692 11.4311 30.4486 12.7128 30.9411L13.1474 33.5138C13.2855 34.3372 13.9996 34.9347 14.8456 34.9347H20.4017C21.2468 34.9347 21.9608 34.3374 22.0993 33.5148L22.5341 30.9412C23.816 30.4486 25.0067 29.7692 26.0831 28.9162L28.5597 29.8317C28.7548 29.9047 28.9592 29.9417 29.167 29.9417C29.7792 29.9417 30.35 29.616 30.6567 29.0917L33.4348 24.3434C33.8573 23.6215 33.6905 22.7126 33.038 22.1822ZM20.4016 33.5931H16.9424V30.42C16.9424 30.0495 16.6381 29.7492 16.2627 29.7492C15.8873 29.7492 15.5829 30.0495 15.5829 30.42V33.5931H14.8724V26.2361C15.7575 26.5471 16.6979 26.7096 17.661 26.71C17.6612 26.71 17.6653 26.71 17.6655 26.71C18.6317 26.71 19.5732 26.5477 20.4582 26.2365V33.5882H20.4582C20.4397 33.591 20.4209 33.5931 20.4016 33.5931ZM17.6653 25.3684H17.6616C13.8258 25.3666 10.7052 22.2852 10.7052 18.4998C10.7053 16.2969 11.7575 14.2747 13.5129 12.9952V17.8889C13.5129 18.1246 13.6381 18.3429 13.8429 18.4641L17.3155 20.5202C17.5308 20.6476 17.7997 20.6476 18.015 20.5202L21.4876 18.4641C21.6924 18.3429 21.8177 18.1245 21.8177 17.8889V12.9952C23.573 14.2747 24.6253 16.297 24.6252 18.5C24.6252 20.3314 23.9003 22.0554 22.5842 23.3543C21.268 24.6531 19.5211 25.3684 17.6653 25.3684ZM32.2574 23.6724L29.4793 28.4209C29.393 28.5683 29.2111 28.6406 29.0389 28.5762L26.1914 27.5236C25.96 27.4381 25.6999 27.4831 25.5119 27.6413C24.4109 28.5676 23.1683 29.2841 21.8175 29.7735V25.6148C22.4411 25.2584 23.0219 24.8196 23.5454 24.3029C25.1183 22.7506 25.9846 20.6898 25.9846 18.5C25.9846 15.4029 24.2457 12.6046 21.4464 11.1971C21.2357 11.0912 20.9843 11.101 20.7826 11.2229C20.581 11.3449 20.4581 11.5615 20.4581 11.7948V17.5092L17.6652 19.1629L14.8723 17.5092V11.7948C14.8723 11.5615 14.7493 11.3449 14.5477 11.2229C14.3461 11.101 14.0948 11.0913 13.884 11.1971C11.0847 12.6045 9.34582 15.4028 9.34569 18.4998C9.34562 20.7303 10.2293 22.811 11.8338 24.3586C12.345 24.8516 12.9092 25.2721 13.5128 25.6159V29.8039C12.1299 29.3141 10.8589 28.5868 9.73503 27.6414C9.61 27.5363 9.45315 27.4811 9.29397 27.4811C9.21382 27.4811 9.13309 27.4951 9.05567 27.5238L6.20435 28.5778C6.16448 28.5928 6.12271 28.6005 6.08043 28.6005C5.95233 28.6005 5.83257 28.5317 5.76784 28.421L2.98964 23.6724C2.90084 23.5208 2.93617 23.3297 3.07343 23.2181L5.4187 21.3119C5.60904 21.1571 5.6996 20.9128 5.65517 20.6735C5.52311 19.9596 5.45604 19.2284 5.45604 18.5C5.45604 17.7716 5.52304 17.0404 5.6553 16.3266C5.6996 16.0872 5.60917 15.8429 5.41876 15.6882L3.0735 13.7821C2.9361 13.6704 2.90084 13.4793 2.98977 13.3276L5.76791 8.57907C5.85397 8.4318 6.03521 8.35894 6.20826 8.42378L9.0558 9.47637C9.28707 9.56176 9.54722 9.51682 9.73523 9.3587C10.8683 8.40554 12.1506 7.67388 13.5467 7.18391C13.7793 7.10225 13.9488 6.9026 13.9894 6.66224L14.4889 3.70533C14.5179 3.53238 14.668 3.40687 14.8456 3.40687H20.4017C20.5793 3.40687 20.7293 3.53238 20.7585 3.70577L21.2581 6.6623C21.2987 6.90266 21.4682 7.10245 21.7008 7.18398C23.0968 7.67388 24.3791 8.40548 25.5121 9.35863C25.7001 9.51675 25.9602 9.56182 26.1915 9.47631L29.0405 8.42314C29.0815 8.40786 29.1242 8.40015 29.1673 8.40015C29.2955 8.40015 29.4149 8.46846 29.4795 8.5792L32.2577 13.3278C32.3465 13.4793 32.3111 13.6704 32.1739 13.782L29.8285 15.6882C29.6382 15.843 29.5476 16.0872 29.5921 16.3266C29.7241 17.0404 29.7912 17.7716 29.7912 18.5C29.7912 19.2284 29.7242 19.9596 29.5919 20.6733C29.5476 20.9127 29.6381 21.1571 29.8285 21.3117L32.1737 23.2178C32.3111 23.3294 32.3463 23.5206 32.2574 23.6724Z"/>
        </mask>
        <path d="M33.038 22.1822L30.9957 20.5223C31.0985 19.8547 31.1506 19.1762 31.1506 18.5C31.1506 17.8237 31.0985 17.1451 30.9957 16.4775L33.038 14.8175C33.6906 14.2871 33.8573 13.3782 33.4348 12.6566L30.6571 7.9091C30.3511 7.38441 29.7803 7.05847 29.1672 7.05847C28.9597 7.05847 28.7557 7.09526 28.5621 7.16729L26.0829 8.08365C25.0065 7.23071 23.8159 6.5513 22.5342 6.05884L22.0995 3.48564C21.9611 2.66262 21.2471 2.06519 20.4016 2.06519H14.8455C14 2.06519 13.286 2.66268 13.1478 3.48519L12.713 6.05877C11.4313 6.55137 10.2405 7.23071 9.16412 8.08372L6.68784 7.16844C6.49274 7.09538 6.2884 7.05834 6.08036 7.05834C5.46794 7.05834 4.89696 7.38408 4.59043 7.90839L1.81249 12.6565C1.3897 13.3784 1.5565 14.2873 2.20912 14.8177L4.25143 16.4775C4.14865 17.1452 4.0966 17.8237 4.0966 18.5C4.0966 19.1762 4.14865 19.8547 4.25143 20.5224L2.20912 22.1823C1.5565 22.7127 1.38977 23.6217 1.81236 24.3432L4.59036 29.0915C4.89716 29.6161 5.46807 29.942 6.08036 29.942C6.28886 29.942 6.49358 29.9047 6.68497 29.8326L9.16399 28.9162C10.2404 29.7692 11.4311 30.4486 12.7128 30.9411L13.1474 33.5138C13.2855 34.3372 13.9996 34.9347 14.8456 34.9347H20.4017C21.2468 34.9347 21.9608 34.3374 22.0993 33.5148L22.5341 30.9412C23.816 30.4486 25.0067 29.7692 26.0831 28.9162L28.5597 29.8317C28.7548 29.9047 28.9592 29.9417 29.167 29.9417C29.7792 29.9417 30.35 29.616 30.6567 29.0917L33.4348 24.3434C33.8573 23.6215 33.6905 22.7126 33.038 22.1822ZM20.4016 33.5931H16.9424V30.42C16.9424 30.0495 16.6381 29.7492 16.2627 29.7492C15.8873 29.7492 15.5829 30.0495 15.5829 30.42V33.5931H14.8724V26.2361C15.7575 26.5471 16.6979 26.7096 17.661 26.71C17.6612 26.71 17.6653 26.71 17.6655 26.71C18.6317 26.71 19.5732 26.5477 20.4582 26.2365V33.5882H20.4582C20.4397 33.591 20.4209 33.5931 20.4016 33.5931ZM17.6653 25.3684H17.6616C13.8258 25.3666 10.7052 22.2852 10.7052 18.4998C10.7053 16.2969 11.7575 14.2747 13.5129 12.9952V17.8889C13.5129 18.1246 13.6381 18.3429 13.8429 18.4641L17.3155 20.5202C17.5308 20.6476 17.7997 20.6476 18.015 20.5202L21.4876 18.4641C21.6924 18.3429 21.8177 18.1245 21.8177 17.8889V12.9952C23.573 14.2747 24.6253 16.297 24.6252 18.5C24.6252 20.3314 23.9003 22.0554 22.5842 23.3543C21.268 24.6531 19.5211 25.3684 17.6653 25.3684ZM32.2574 23.6724L29.4793 28.4209C29.393 28.5683 29.2111 28.6406 29.0389 28.5762L26.1914 27.5236C25.96 27.4381 25.6999 27.4831 25.5119 27.6413C24.4109 28.5676 23.1683 29.2841 21.8175 29.7735V25.6148C22.4411 25.2584 23.0219 24.8196 23.5454 24.3029C25.1183 22.7506 25.9846 20.6898 25.9846 18.5C25.9846 15.4029 24.2457 12.6046 21.4464 11.1971C21.2357 11.0912 20.9843 11.101 20.7826 11.2229C20.581 11.3449 20.4581 11.5615 20.4581 11.7948V17.5092L17.6652 19.1629L14.8723 17.5092V11.7948C14.8723 11.5615 14.7493 11.3449 14.5477 11.2229C14.3461 11.101 14.0948 11.0913 13.884 11.1971C11.0847 12.6045 9.34582 15.4028 9.34569 18.4998C9.34562 20.7303 10.2293 22.811 11.8338 24.3586C12.345 24.8516 12.9092 25.2721 13.5128 25.6159V29.8039C12.1299 29.3141 10.8589 28.5868 9.73503 27.6414C9.61 27.5363 9.45315 27.4811 9.29397 27.4811C9.21382 27.4811 9.13309 27.4951 9.05567 27.5238L6.20435 28.5778C6.16448 28.5928 6.12271 28.6005 6.08043 28.6005C5.95233 28.6005 5.83257 28.5317 5.76784 28.421L2.98964 23.6724C2.90084 23.5208 2.93617 23.3297 3.07343 23.2181L5.4187 21.3119C5.60904 21.1571 5.6996 20.9128 5.65517 20.6735C5.52311 19.9596 5.45604 19.2284 5.45604 18.5C5.45604 17.7716 5.52304 17.0404 5.6553 16.3266C5.6996 16.0872 5.60917 15.8429 5.41876 15.6882L3.0735 13.7821C2.9361 13.6704 2.90084 13.4793 2.98977 13.3276L5.76791 8.57907C5.85397 8.4318 6.03521 8.35894 6.20826 8.42378L9.0558 9.47637C9.28707 9.56176 9.54722 9.51682 9.73523 9.3587C10.8683 8.40554 12.1506 7.67388 13.5467 7.18391C13.7793 7.10225 13.9488 6.9026 13.9894 6.66224L14.4889 3.70533C14.5179 3.53238 14.668 3.40687 14.8456 3.40687H20.4017C20.5793 3.40687 20.7293 3.53238 20.7585 3.70577L21.2581 6.6623C21.2987 6.90266 21.4682 7.10245 21.7008 7.18398C23.0968 7.67388 24.3791 8.40548 25.5121 9.35863C25.7001 9.51675 25.9602 9.56182 26.1915 9.47631L29.0405 8.42314C29.0815 8.40786 29.1242 8.40015 29.1673 8.40015C29.2955 8.40015 29.4149 8.46846 29.4795 8.5792L32.2577 13.3278C32.3465 13.4793 32.3111 13.6704 32.1739 13.782L29.8285 15.6882C29.6382 15.843 29.5476 16.0872 29.5921 16.3266C29.7241 17.0404 29.7912 17.7716 29.7912 18.5C29.7912 19.2284 29.7242 19.9596 29.5919 20.6733C29.5476 20.9127 29.6381 21.1571 29.8285 21.3117L32.1737 23.2178C32.3111 23.3294 32.3463 23.5206 32.2574 23.6724Z" fill="#928882"/>
        <path d="M33.038 22.1822L30.9957 20.5223C31.0985 19.8547 31.1506 19.1762 31.1506 18.5C31.1506 17.8237 31.0985 17.1451 30.9957 16.4775L33.038 14.8175C33.6906 14.2871 33.8573 13.3782 33.4348 12.6566L30.6571 7.9091C30.3511 7.38441 29.7803 7.05847 29.1672 7.05847C28.9597 7.05847 28.7557 7.09526 28.5621 7.16729L26.0829 8.08365C25.0065 7.23071 23.8159 6.5513 22.5342 6.05884L22.0995 3.48564C21.9611 2.66262 21.2471 2.06519 20.4016 2.06519H14.8455C14 2.06519 13.286 2.66268 13.1478 3.48519L12.713 6.05877C11.4313 6.55137 10.2405 7.23071 9.16412 8.08372L6.68784 7.16844C6.49274 7.09538 6.2884 7.05834 6.08036 7.05834C5.46794 7.05834 4.89696 7.38408 4.59043 7.90839L1.81249 12.6565C1.3897 13.3784 1.5565 14.2873 2.20912 14.8177L4.25143 16.4775C4.14865 17.1452 4.0966 17.8237 4.0966 18.5C4.0966 19.1762 4.14865 19.8547 4.25143 20.5224L2.20912 22.1823C1.5565 22.7127 1.38977 23.6217 1.81236 24.3432L4.59036 29.0915C4.89716 29.6161 5.46807 29.942 6.08036 29.942C6.28886 29.942 6.49358 29.9047 6.68497 29.8326L9.16399 28.9162C10.2404 29.7692 11.4311 30.4486 12.7128 30.9411L13.1474 33.5138C13.2855 34.3372 13.9996 34.9347 14.8456 34.9347H20.4017C21.2468 34.9347 21.9608 34.3374 22.0993 33.5148L22.5341 30.9412C23.816 30.4486 25.0067 29.7692 26.0831 28.9162L28.5597 29.8317C28.7548 29.9047 28.9592 29.9417 29.167 29.9417C29.7792 29.9417 30.35 29.616 30.6567 29.0917L33.4348 24.3434C33.8573 23.6215 33.6905 22.7126 33.038 22.1822ZM20.4016 33.5931H16.9424V30.42C16.9424 30.0495 16.6381 29.7492 16.2627 29.7492C15.8873 29.7492 15.5829 30.0495 15.5829 30.42V33.5931H14.8724V26.2361C15.7575 26.5471 16.6979 26.7096 17.661 26.71C17.6612 26.71 17.6653 26.71 17.6655 26.71C18.6317 26.71 19.5732 26.5477 20.4582 26.2365V33.5882H20.4582C20.4397 33.591 20.4209 33.5931 20.4016 33.5931ZM17.6653 25.3684H17.6616C13.8258 25.3666 10.7052 22.2852 10.7052 18.4998C10.7053 16.2969 11.7575 14.2747 13.5129 12.9952V17.8889C13.5129 18.1246 13.6381 18.3429 13.8429 18.4641L17.3155 20.5202C17.5308 20.6476 17.7997 20.6476 18.015 20.5202L21.4876 18.4641C21.6924 18.3429 21.8177 18.1245 21.8177 17.8889V12.9952C23.573 14.2747 24.6253 16.297 24.6252 18.5C24.6252 20.3314 23.9003 22.0554 22.5842 23.3543C21.268 24.6531 19.5211 25.3684 17.6653 25.3684ZM32.2574 23.6724L29.4793 28.4209C29.393 28.5683 29.2111 28.6406 29.0389 28.5762L26.1914 27.5236C25.96 27.4381 25.6999 27.4831 25.5119 27.6413C24.4109 28.5676 23.1683 29.2841 21.8175 29.7735V25.6148C22.4411 25.2584 23.0219 24.8196 23.5454 24.3029C25.1183 22.7506 25.9846 20.6898 25.9846 18.5C25.9846 15.4029 24.2457 12.6046 21.4464 11.1971C21.2357 11.0912 20.9843 11.101 20.7826 11.2229C20.581 11.3449 20.4581 11.5615 20.4581 11.7948V17.5092L17.6652 19.1629L14.8723 17.5092V11.7948C14.8723 11.5615 14.7493 11.3449 14.5477 11.2229C14.3461 11.101 14.0948 11.0913 13.884 11.1971C11.0847 12.6045 9.34582 15.4028 9.34569 18.4998C9.34562 20.7303 10.2293 22.811 11.8338 24.3586C12.345 24.8516 12.9092 25.2721 13.5128 25.6159V29.8039C12.1299 29.3141 10.8589 28.5868 9.73503 27.6414C9.61 27.5363 9.45315 27.4811 9.29397 27.4811C9.21382 27.4811 9.13309 27.4951 9.05567 27.5238L6.20435 28.5778C6.16448 28.5928 6.12271 28.6005 6.08043 28.6005C5.95233 28.6005 5.83257 28.5317 5.76784 28.421L2.98964 23.6724C2.90084 23.5208 2.93617 23.3297 3.07343 23.2181L5.4187 21.3119C5.60904 21.1571 5.6996 20.9128 5.65517 20.6735C5.52311 19.9596 5.45604 19.2284 5.45604 18.5C5.45604 17.7716 5.52304 17.0404 5.6553 16.3266C5.6996 16.0872 5.60917 15.8429 5.41876 15.6882L3.0735 13.7821C2.9361 13.6704 2.90084 13.4793 2.98977 13.3276L5.76791 8.57907C5.85397 8.4318 6.03521 8.35894 6.20826 8.42378L9.0558 9.47637C9.28707 9.56176 9.54722 9.51682 9.73523 9.3587C10.8683 8.40554 12.1506 7.67388 13.5467 7.18391C13.7793 7.10225 13.9488 6.9026 13.9894 6.66224L14.4889 3.70533C14.5179 3.53238 14.668 3.40687 14.8456 3.40687H20.4017C20.5793 3.40687 20.7293 3.53238 20.7585 3.70577L21.2581 6.6623C21.2987 6.90266 21.4682 7.10245 21.7008 7.18398C23.0968 7.67388 24.3791 8.40548 25.5121 9.35863C25.7001 9.51675 25.9602 9.56182 26.1915 9.47631L29.0405 8.42314C29.0815 8.40786 29.1242 8.40015 29.1673 8.40015C29.2955 8.40015 29.4149 8.46846 29.4795 8.5792L32.2577 13.3278C32.3465 13.4793 32.3111 13.6704 32.1739 13.782L29.8285 15.6882C29.6382 15.843 29.5476 16.0872 29.5921 16.3266C29.7241 17.0404 29.7912 17.7716 29.7912 18.5C29.7912 19.2284 29.7242 19.9596 29.5919 20.6733C29.5476 20.9127 29.6381 21.1571 29.8285 21.3117L32.1737 23.2178C32.3111 23.3294 32.3463 23.5206 32.2574 23.6724Z" stroke="black" stroke-width="4" mask="url(#path-1-outside-1_826_9871)"/>
    </g>
    <defs>
        <clipPath id="clip0_826_9871">
            <rect width="36" height="36" fill="white" transform="translate(0.0146484 0.5)"/>
        </clipPath>
    </defs>
</svg>
